{
    "asset" : {
        "generator" : "Khronos glTF Blender I/O v1.4.40",
        "version" : "2.0"
    },
    "scene" : 0,
    "scenes" : [
        {
            "name" : "Scene",
            "nodes" : [
                0,
                1,
                2,
                3,
                4,
                5,
                6,
                7,
                8,
                9,
                10
            ]
        }
    ],
    "nodes" : [
        {
            "name" : "Light.001",
            "rotation" : [
                0.16907575726509094,
                0.7558803558349609,
                -0.27217137813568115,
                0.570947527885437
            ],
            "translation" : [
                4.076245307922363,
                5.903861999511719,
                -1.0054539442062378
            ]
        },
        {
            "name" : "Camera.001",
            "rotation" : [
                0.483536034822464,
                0.33687159419059753,
                -0.20870360732078552,
                0.7804827094078064
            ],
            "translation" : [
                7.358891487121582,
                4.958309173583984,
                6.925790786743164
            ]
        },
        {
            "mesh" : 0,
            "name" : "\u041c\u0435\u0442\u0430\u043b\u043b - \u0425\u0440\u043e\u043c 01",
            "scale" : [
                0.009999999776482582,
                0.009999999776482582,
                0.009999999776482582
            ]
        },
        {
            "mesh" : 1,
            "name" : "\u041a\u0440\u0430\u0441\u043a\u0430 - \u0411\u0435\u043b\u044b\u0439 (\u0413\u0421\u041f)",
            "scale" : [
                0.009999999776482582,
                0.009999999776482582,
                0.009999999776482582
            ]
        },
        {
            "mesh" : 2,
            "name" : "\u041a\u0440\u0430\u0441\u043a\u0430 - \u0411\u0435\u043b\u0438\u043b\u0430 \u0422\u0438\u0442\u0430\u043d\u043e\u0432\u044b\u0435",
            "scale" : [
                0.009999999776482582,
                0.009999999776482582,
                0.009999999776482582
            ]
        },
        {
            "mesh" : 3,
            "name" : "\u0428\u0442\u0443\u043a\u0430\u0442\u0443\u0440\u043a\u0430 - \u0412\u044b\u0441\u043e\u043a\u043e\u043a\u0430\u0447\u0435\u0441\u0442\u0432\u0435\u043d\u043d_88a1875",
            "scale" : [
                0.009999999776482582,
                0.009999999776482582,
                0.009999999776482582
            ]
        },
        {
            "mesh" : 4,
            "name" : "\u041a\u0440\u0430\u0441\u043a\u0430 - \u0422\u0435\u043c\u043d\u043e-\u0421\u0435\u0440\u0430\u044f",
            "scale" : [
                0.009999999776482582,
                0.009999999776482582,
                0.009999999776482582
            ]
        },
        {
            "mesh" : 5,
            "name" : "\u041c\u0435\u0442\u0430\u043b\u043b - \u041f\u0435\u0440\u0444\u043e\u0440\u0438\u0440\u043e\u0432\u0430\u043d\u043d\u044b\u0439",
            "scale" : [
                0.009999999776482582,
                0.009999999776482582,
                0.009999999776482582
            ]
        },
        {
            "mesh" : 6,
            "name" : "\u0411\u0435\u0442\u043e\u043d - 10",
            "scale" : [
                0.009999999776482582,
                0.009999999776482582,
                0.009999999776482582
            ]
        },
        {
            "name" : "Light",
            "rotation" : [
                0.16907575726509094,
                0.7558803558349609,
                -0.27217137813568115,
                0.570947527885437
            ],
            "translation" : [
                4.076245307922363,
                5.903861999511719,
                -1.0054539442062378
            ]
        },
        {
            "name" : "Camera",
            "rotation" : [
                0.483536034822464,
                0.33687159419059753,
                -0.20870360732078552,
                0.7804827094078064
            ],
            "translation" : [
                7.358891487121582,
                4.958309173583984,
                6.925790786743164
            ]
        }
    ],
    "materials" : [
        {
            "doubleSided" : true,
            "name" : "\u041c\u0435\u0442\u0430\u043b\u043b - \u0425\u0440\u043e\u043c 01.001",
            "pbrMetallicRoughness" : {
                "baseColorFactor" : [
                    0.4313725531101227,
                    0.4313725531101227,
                    0.4313725531101227,
                    1
                ],
                "roughnessFactor" : 0.5
            }
        },
        {
            "doubleSided" : true,
            "emissiveFactor" : [
                0.49692580103874207,
                0.49692580103874207,
                0.49692580103874207
            ],
            "name" : "\u041a\u0440\u0430\u0441\u043a\u0430 - \u0411\u0435\u043b\u044b\u0439 (\u0413\u0421\u041f)",
            "pbrMetallicRoughness" : {
                "baseColorFactor" : [
                    0.8705882430076599,
                    0.8705882430076599,
                    0.8705882430076599,
                    1
                ],
                "roughnessFactor" : 0.9292893409729004
            }
        },
        {
            "doubleSided" : true,
            "emissiveFactor" : [
                0.38437721133232117,
                0.38437721133232117,
                0.38437721133232117
            ],
            "name" : "\u041a\u0440\u0430\u0441\u043a\u0430 - \u0411\u0435\u043b\u0438\u043b\u0430 \u0422\u0438\u0442\u0430\u043d\u043e\u0432\u044b\u0435.004",
            "pbrMetallicRoughness" : {
                "roughnessFactor" : 0.6000000238418579
            }
        },
        {
            "doubleSided" : true,
            "name" : "\u0428\u0442\u0443\u043a\u0430\u0442\u0443\u0440\u043a\u0430 - \u0412\u044b\u0441\u043e\u043a\u043e\u043a\u0430\u0447\u0435\u0441\u0442\u0432\u0435\u043d\u043d_88a",
            "pbrMetallicRoughness" : {
                "baseColorTexture" : {
                    "index" : 0,
                    "texCoord" : 0
                },
                "roughnessFactor" : 0.9181464910507202
            }
        },
        {
            "doubleSided" : true,
            "name" : "\u041a\u0440\u0430\u0441\u043a\u0430 - \u0422\u0435\u043c\u043d\u043e-\u0421\u0435\u0440\u0430\u044f.004",
            "pbrMetallicRoughness" : {
                "baseColorFactor" : [
                    0.35686275362968445,
                    0.35686275362968445,
                    0.35686275362968445,
                    1
                ],
                "roughnessFactor" : 0.26600000262260437
            }
        },
        {
            "doubleSided" : true,
            "name" : "\u041c\u0435\u0442\u0430\u043b\u043b - \u041f\u0435\u0440\u0444\u043e\u0440\u0438\u0440\u043e\u0432\u0430\u043d\u043d\u044b\u0439.001",
            "pbrMetallicRoughness" : {
                "baseColorTexture" : {
                    "index" : 1,
                    "texCoord" : 0
                },
                "roughnessFactor" : 0.24899999797344208
            }
        },
        {
            "doubleSided" : true,
            "name" : "\u0411\u0435\u0442\u043e\u043d - 10.001",
            "pbrMetallicRoughness" : {
                "baseColorTexture" : {
                    "index" : 2,
                    "texCoord" : 0
                },
                "roughnessFactor" : 0.949999988079071
            }
        }
    ],
    "meshes" : [
        {
            "name" : "\u041c\u0435\u0442\u0430\u043b\u043b - \u0425\u0440\u043e\u043c 01.001",
            "primitives" : [
                {
                    "attributes" : {
                        "POSITION" : 0,
                        "NORMAL" : 1
                    },
                    "indices" : 2,
                    "material" : 0
                }
            ]
        },
        {
            "name" : "\u041a\u0440\u0430\u0441\u043a\u0430 - \u0411\u0435\u043b\u044b\u0439 (\u0413\u0421\u041f)",
            "primitives" : [
                {
                    "attributes" : {
                        "POSITION" : 3,
                        "NORMAL" : 4
                    },
                    "indices" : 5,
                    "material" : 1
                }
            ]
        },
        {
            "name" : "\u041a\u0440\u0430\u0441\u043a\u0430 - \u0411\u0435\u043b\u0438\u043b\u0430 \u0422\u0438\u0442\u0430\u043d\u043e\u0432\u044b\u0435.004",
            "primitives" : [
                {
                    "attributes" : {
                        "POSITION" : 6,
                        "NORMAL" : 7
                    },
                    "indices" : 8,
                    "material" : 2
                }
            ]
        },
        {
            "name" : "\u0428\u0442\u0443\u043a\u0430\u0442\u0443\u0440\u043a\u0430 - \u0412\u044b\u0441\u043e\u043a\u043e\u043a\u0430\u0447\u0435\u0441\u0442\u0432\u0435\u043d\u043d_88a",
            "primitives" : [
                {
                    "attributes" : {
                        "POSITION" : 9,
                        "NORMAL" : 10,
                        "TEXCOORD_0" : 11
                    },
                    "indices" : 12,
                    "material" : 3
                }
            ]
        },
        {
            "name" : "\u041a\u0440\u0430\u0441\u043a\u0430 - \u0422\u0435\u043c\u043d\u043e-\u0421\u0435\u0440\u0430\u044f.004",
            "primitives" : [
                {
                    "attributes" : {
                        "POSITION" : 13,
                        "NORMAL" : 14
                    },
                    "indices" : 15,
                    "material" : 4
                }
            ]
        },
        {
            "name" : "\u041c\u0435\u0442\u0430\u043b\u043b - \u041f\u0435\u0440\u0444\u043e\u0440\u0438\u0440\u043e\u0432\u0430\u043d\u043d\u044b\u0439.001",
            "primitives" : [
                {
                    "attributes" : {
                        "POSITION" : 16,
                        "NORMAL" : 17,
                        "TEXCOORD_0" : 18
                    },
                    "indices" : 19,
                    "material" : 5
                }
            ]
        },
        {
            "name" : "\u0411\u0435\u0442\u043e\u043d - 10.001",
            "primitives" : [
                {
                    "attributes" : {
                        "POSITION" : 20,
                        "NORMAL" : 21,
                        "TEXCOORD_0" : 22
                    },
                    "indices" : 23,
                    "material" : 6
                }
            ]
        }
    ],
    "textures" : [
        {
            "sampler" : 0,
            "source" : 0
        },
        {
            "sampler" : 0,
            "source" : 1
        },
        {
            "sampler" : 0,
            "source" : 2
        }
    ],
    "images" : [
        {
            "bufferView" : 13,
            "mimeType" : "image/png",
            "name" : "2ca762692b0a074c056e9d9431e8b289"
        },
        {
            "bufferView" : 21,
            "mimeType" : "image/png",
            "name" : "91bf285928610941088a35ebf719a264"
        },
        {
            "bufferView" : 26,
            "mimeType" : "image/png",
            "name" : "e059784c460f57c248921b5d81489009"
        }
    ],
    "accessors" : [
        {
            "bufferView" : 0,
            "componentType" : 5126,
            "count" : 24,
            "max" : [
                9.75,
                160,
                10
            ],
            "min" : [
                -9.75,
                0,
                -10
            ],
            "type" : "VEC3"
        },
        {
            "bufferView" : 1,
            "componentType" : 5126,
            "count" : 24,
            "type" : "VEC3"
        },
        {
            "bufferView" : 2,
            "componentType" : 5123,
            "count" : 120,
            "type" : "SCALAR"
        },
        {
            "bufferView" : 3,
            "componentType" : 5126,
            "count" : 128,
            "max" : [
                18.86688232421875,
                120.00000762939453,
                19.400001525878906
            ],
            "min" : [
                -18.86688232421875,
                0,
                -19.400135040283203
            ],
            "type" : "VEC3"
        },
        {
            "bufferView" : 4,
            "componentType" : 5126,
            "count" : 128,
            "type" : "VEC3"
        },
        {
            "bufferView" : 5,
            "componentType" : 5123,
            "count" : 192,
            "type" : "SCALAR"
        },
        {
            "bufferView" : 6,
            "componentType" : 5126,
            "count" : 128,
            "max" : [
                18.86688232421875,
                120.00000762939453,
                19.400001525878906
            ],
            "min" : [
                -18.86688232421875,
                0,
                -19.400135040283203
            ],
            "type" : "VEC3"
        },
        {
            "bufferView" : 7,
            "componentType" : 5126,
            "count" : 128,
            "type" : "VEC3"
        },
        {
            "bufferView" : 8,
            "componentType" : 5123,
            "count" : 384,
            "type" : "SCALAR"
        },
        {
            "bufferView" : 9,
            "componentType" : 5126,
            "count" : 192,
            "max" : [
                19.46720314025879,
                60.000003814697266,
                20.000154495239258
            ],
            "min" : [
                -19.46720314025879,
                0,
                -20.000154495239258
            ],
            "type" : "VEC3"
        },
        {
            "bufferView" : 10,
            "componentType" : 5126,
            "count" : 192,
            "type" : "VEC3"
        },
        {
            "bufferView" : 11,
            "componentType" : 5126,
            "count" : 192,
            "type" : "VEC2"
        },
        {
            "bufferView" : 12,
            "componentType" : 5123,
            "count" : 288,
            "type" : "SCALAR"
        },
        {
            "bufferView" : 14,
            "componentType" : 5126,
            "count" : 3328,
            "max" : [
                19.091882705688477,
                116.20001220703125,
                19.625
            ],
            "min" : [
                -19.091882705688477,
                85,
                -19.625
            ],
            "type" : "VEC3"
        },
        {
            "bufferView" : 15,
            "componentType" : 5126,
            "count" : 3328,
            "type" : "VEC3"
        },
        {
            "bufferView" : 16,
            "componentType" : 5123,
            "count" : 19392,
            "type" : "SCALAR"
        },
        {
            "bufferView" : 17,
            "componentType" : 5126,
            "count" : 408,
            "max" : [
                12.502896308898926,
                140,
                12.97346019744873
            ],
            "min" : [
                -12.502896308898926,
                0,
                -12.97346019744873
            ],
            "type" : "VEC3"
        },
        {
            "bufferView" : 18,
            "componentType" : 5126,
            "count" : 408,
            "type" : "VEC3"
        },
        {
            "bufferView" : 19,
            "componentType" : 5126,
            "count" : 408,
            "type" : "VEC2"
        },
        {
            "bufferView" : 20,
            "componentType" : 5123,
            "count" : 816,
            "type" : "SCALAR"
        },
        {
            "bufferView" : 22,
            "componentType" : 5126,
            "count" : 20,
            "max" : [
                40,
                0,
                40
            ],
            "min" : [
                -40,
                -20,
                -40
            ],
            "type" : "VEC3"
        },
        {
            "bufferView" : 23,
            "componentType" : 5126,
            "count" : 20,
            "type" : "VEC3"
        },
        {
            "bufferView" : 24,
            "componentType" : 5126,
            "count" : 20,
            "type" : "VEC2"
        },
        {
            "bufferView" : 25,
            "componentType" : 5123,
            "count" : 36,
            "type" : "SCALAR"
        }
    ],
    "bufferViews" : [
        {
            "buffer" : 0,
            "byteLength" : 288,
            "byteOffset" : 0
        },
        {
            "buffer" : 0,
            "byteLength" : 288,
            "byteOffset" : 288
        },
        {
            "buffer" : 0,
            "byteLength" : 240,
            "byteOffset" : 576
        },
        {
            "buffer" : 0,
            "byteLength" : 1536,
            "byteOffset" : 816
        },
        {
            "buffer" : 0,
            "byteLength" : 1536,
            "byteOffset" : 2352
        },
        {
            "buffer" : 0,
            "byteLength" : 384,
            "byteOffset" : 3888
        },
        {
            "buffer" : 0,
            "byteLength" : 1536,
            "byteOffset" : 4272
        },
        {
            "buffer" : 0,
            "byteLength" : 1536,
            "byteOffset" : 5808
        },
        {
            "buffer" : 0,
            "byteLength" : 768,
            "byteOffset" : 7344
        },
        {
            "buffer" : 0,
            "byteLength" : 2304,
            "byteOffset" : 8112
        },
        {
            "buffer" : 0,
            "byteLength" : 2304,
            "byteOffset" : 10416
        },
        {
            "buffer" : 0,
            "byteLength" : 1536,
            "byteOffset" : 12720
        },
        {
            "buffer" : 0,
            "byteLength" : 576,
            "byteOffset" : 14256
        },
        {
            "buffer" : 0,
            "byteLength" : 84479,
            "byteOffset" : 14832
        },
        {
            "buffer" : 0,
            "byteLength" : 39936,
            "byteOffset" : 99312
        },
        {
            "buffer" : 0,
            "byteLength" : 39936,
            "byteOffset" : 139248
        },
        {
            "buffer" : 0,
            "byteLength" : 38784,
            "byteOffset" : 179184
        },
        {
            "buffer" : 0,
            "byteLength" : 4896,
            "byteOffset" : 217968
        },
        {
            "buffer" : 0,
            "byteLength" : 4896,
            "byteOffset" : 222864
        },
        {
            "buffer" : 0,
            "byteLength" : 3264,
            "byteOffset" : 227760
        },
        {
            "buffer" : 0,
            "byteLength" : 1632,
            "byteOffset" : 231024
        },
        {
            "buffer" : 0,
            "byteLength" : 81024,
            "byteOffset" : 232656
        },
        {
            "buffer" : 0,
            "byteLength" : 240,
            "byteOffset" : 313680
        },
        {
            "buffer" : 0,
            "byteLength" : 240,
            "byteOffset" : 313920
        },
        {
            "buffer" : 0,
            "byteLength" : 160,
            "byteOffset" : 314160
        },
        {
            "buffer" : 0,
            "byteLength" : 72,
            "byteOffset" : 314320
        },
        {
            "buffer" : 0,
            "byteLength" : 83526,
            "byteOffset" : 314392
        }
    ],
    "samplers" : [
        {
            "magFilter" : 9729,
            "minFilter" : 9986
        }
    ],
    "buffers" : [
        {
            "byteLength" : 397920,
            "uri" : "data:application/octet-stream;base64,"
        }
    ]
}
