{
    "asset" : {
        "generator" : "Khronos glTF Blender I/O v1.4.40",
        "version" : "2.0"
    },
    "scene" : 0,
    "scenes" : [
        {
            "name" : "Scene",
            "nodes" : [
                0,
                1,
                2,
                3,
                4,
                5,
                6,
                7,
                8,
                9
            ]
        }
    ],
    "nodes" : [
        {
            "name" : "Light.001",
            "rotation" : [
                0.16907575726509094,
                0.7558803558349609,
                -0.27217137813568115,
                0.570947527885437
            ],
            "translation" : [
                4.076245307922363,
                5.903861999511719,
                -1.0054539442062378
            ]
        },
        {
            "name" : "Camera.001",
            "rotation" : [
                0.483536034822464,
                0.33687159419059753,
                -0.20870360732078552,
                0.7804827094078064
            ],
            "translation" : [
                7.358891487121582,
                4.958309173583984,
                6.925790786743164
            ]
        },
        {
            "mesh" : 0,
            "name" : "\u041a\u0440\u0430\u0441\u043a\u0430 - \u0411\u0435\u043b\u0438\u043b\u0430 \u0422\u0438\u0442\u0430\u043d\u043e\u0432\u044b\u0435",
            "scale" : [
                0.009999999776482582,
                0.009999999776482582,
                0.009999999776482582
            ]
        },
        {
            "mesh" : 1,
            "name" : "\u041a\u0440\u0430\u0441\u043a\u0430 - \u041f\u0435\u0441\u043e\u043a \u0421\u0438\u0435\u043d\u043d\u0430",
            "scale" : [
                0.009999999776482582,
                0.009999999776482582,
                0.009999999776482582
            ]
        },
        {
            "mesh" : 2,
            "name" : "\u041a\u0440\u0430\u0441\u043a\u0430 - \u0422\u0435\u043c\u043d\u043e-\u0421\u0435\u0440\u0430\u044f",
            "scale" : [
                0.009999999776482582,
                0.009999999776482582,
                0.009999999776482582
            ]
        },
        {
            "mesh" : 3,
            "name" : "\u0418\u0437\u043e\u043b\u044f\u0446\u0438\u044f - \u0421\u0442\u0435\u043a\u043b\u043e\u0432\u043e\u043b\u043e\u043a\u043d\u043e",
            "scale" : [
                0.009999999776482582,
                0.009999999776482582,
                0.009999999776482582
            ]
        },
        {
            "mesh" : 4,
            "name" : "\u041c\u0435\u0442\u0430\u043b\u043b - \u041f\u0435\u0440\u0444\u043e\u0440\u0438\u0440\u043e\u0432\u0430\u043d\u043d\u044b\u0439",
            "scale" : [
                0.009999999776482582,
                0.009999999776482582,
                0.009999999776482582
            ]
        },
        {
            "mesh" : 5,
            "name" : "\u041a\u0440\u0430\u0441\u043a\u0430 - \u0423\u043b\u044c\u0442\u0440\u0430\u043c\u0430\u0440\u0438\u043d \u0424\u0438\u043e\u043b\u0435\u0442\u043e\u0432\u044b\u0439",
            "scale" : [
                0.009999999776482582,
                0.009999999776482582,
                0.009999999776482582
            ]
        },
        {
            "name" : "Light",
            "rotation" : [
                0.16907575726509094,
                0.7558803558349609,
                -0.27217137813568115,
                0.570947527885437
            ],
            "translation" : [
                4.076245307922363,
                5.903861999511719,
                -1.0054539442062378
            ]
        },
        {
            "name" : "Camera",
            "rotation" : [
                0.483536034822464,
                0.33687159419059753,
                -0.20870360732078552,
                0.7804827094078064
            ],
            "translation" : [
                7.358891487121582,
                4.958309173583984,
                6.925790786743164
            ]
        }
    ],
    "materials" : [
        {
            "doubleSided" : true,
            "name" : "\u041a\u0440\u0430\u0441\u043a\u0430 - \u0411\u0435\u043b\u0438\u043b\u0430 \u0422\u0438\u0442\u0430\u043d\u043e\u0432\u044b\u0435.005",
            "pbrMetallicRoughness" : {
                "roughnessFactor" : 0.9700000286102295
            }
        },
        {
            "doubleSided" : true,
            "name" : "\u041a\u0440\u0430\u0441\u043a\u0430 - \u041f\u0435\u0441\u043e\u043a \u0421\u0438\u0435\u043d\u043d\u0430.001",
            "pbrMetallicRoughness" : {
                "baseColorFactor" : [
                    0.8941176533699036,
                    0.8666666746139526,
                    0.772549033164978,
                    1
                ],
                "roughnessFactor" : 0.9700000286102295
            }
        },
        {
            "doubleSided" : true,
            "name" : "\u041a\u0440\u0430\u0441\u043a\u0430 - \u0422\u0435\u043c\u043d\u043e-\u0421\u0435\u0440\u0430\u044f.005",
            "pbrMetallicRoughness" : {
                "baseColorFactor" : [
                    0.35686275362968445,
                    0.35686275362968445,
                    0.35686275362968445,
                    1
                ],
                "roughnessFactor" : 0.26565295457839966
            }
        },
        {
            "doubleSided" : true,
            "emissiveFactor" : [
                0.12672044336795807,
                0.11583312600851059,
                0.07193760573863983
            ],
            "name" : "\u0418\u0437\u043e\u043b\u044f\u0446\u0438\u044f - \u0421\u0442\u0435\u043a\u043b\u043e\u0432\u043e\u043b\u043e\u043a\u043d\u043e.002",
            "pbrMetallicRoughness" : {
                "baseColorTexture" : {
                    "index" : 0,
                    "texCoord" : 0
                }
            }
        },
        {
            "doubleSided" : true,
            "name" : "\u041c\u0435\u0442\u0430\u043b\u043b - \u041f\u0435\u0440\u0444\u043e\u0440\u0438\u0440\u043e\u0432\u0430\u043d\u043d\u044b\u0439.002",
            "pbrMetallicRoughness" : {
                "baseColorTexture" : {
                    "index" : 1,
                    "texCoord" : 0
                },
                "roughnessFactor" : 0.24910110235214233
            }
        },
        {
            "doubleSided" : true,
            "name" : "\u041a\u0440\u0430\u0441\u043a\u0430 - \u0423\u043b\u044c\u0442\u0440\u0430\u043c\u0430\u0440\u0438\u043d \u0424\u0438\u043e\u043b\u0435\u0442\u043e\u0432\u044b\u0439",
            "pbrMetallicRoughness" : {
                "baseColorFactor" : [
                    0.5520710349082947,
                    0.41133248805999756,
                    0.7314424514770508,
                    1
                ],
                "roughnessFactor" : 0.9755051136016846
            }
        }
    ],
    "meshes" : [
        {
            "name" : "\u041a\u0440\u0430\u0441\u043a\u0430 - \u0411\u0435\u043b\u0438\u043b\u0430 \u0422\u0438\u0442\u0430\u043d\u043e\u0432\u044b\u0435.005",
            "primitives" : [
                {
                    "attributes" : {
                        "POSITION" : 0,
                        "NORMAL" : 1
                    },
                    "indices" : 2,
                    "material" : 0
                }
            ]
        },
        {
            "name" : "\u041a\u0440\u0430\u0441\u043a\u0430 - \u041f\u0435\u0441\u043e\u043a \u0421\u0438\u0435\u043d\u043d\u0430.001",
            "primitives" : [
                {
                    "attributes" : {
                        "POSITION" : 3,
                        "NORMAL" : 4
                    },
                    "indices" : 5,
                    "material" : 1
                }
            ]
        },
        {
            "name" : "\u041a\u0440\u0430\u0441\u043a\u0430 - \u0422\u0435\u043c\u043d\u043e-\u0421\u0435\u0440\u0430\u044f.005",
            "primitives" : [
                {
                    "attributes" : {
                        "POSITION" : 6,
                        "NORMAL" : 7
                    },
                    "indices" : 8,
                    "material" : 2
                }
            ]
        },
        {
            "name" : "\u0418\u0437\u043e\u043b\u044f\u0446\u0438\u044f - \u0421\u0442\u0435\u043a\u043b\u043e\u0432\u043e\u043b\u043e\u043a\u043d\u043e.002",
            "primitives" : [
                {
                    "attributes" : {
                        "POSITION" : 9,
                        "NORMAL" : 10,
                        "TEXCOORD_0" : 11
                    },
                    "indices" : 12,
                    "material" : 3
                }
            ]
        },
        {
            "name" : "\u041c\u0435\u0442\u0430\u043b\u043b - \u041f\u0435\u0440\u0444\u043e\u0440\u0438\u0440\u043e\u0432\u0430\u043d\u043d\u044b\u0439.002",
            "primitives" : [
                {
                    "attributes" : {
                        "POSITION" : 13,
                        "NORMAL" : 14,
                        "TEXCOORD_0" : 15
                    },
                    "indices" : 16,
                    "material" : 4
                }
            ]
        },
        {
            "name" : "\u041a\u0440\u0430\u0441\u043a\u0430 - \u0423\u043b\u044c\u0442\u0440\u0430\u043c\u0430\u0440\u0438\u043d \u0424\u0438\u043e\u043b\u0435\u0442\u043e\u0432\u044b\u0439",
            "primitives" : [
                {
                    "attributes" : {
                        "POSITION" : 17,
                        "NORMAL" : 18
                    },
                    "indices" : 19,
                    "material" : 5
                }
            ]
        }
    ],
    "textures" : [
        {
            "sampler" : 0,
            "source" : 0
        },
        {
            "sampler" : 0,
            "source" : 1
        }
    ],
    "images" : [
        {
            "bufferView" : 13,
            "mimeType" : "image/png",
            "name" : "d73c76ccc6bf3708745410c3a0b12a9b"
        },
        {
            "bufferView" : 18,
            "mimeType" : "image/png",
            "name" : "91bf285928610941088a35ebf719a264"
        }
    ],
    "accessors" : [
        {
            "bufferView" : 0,
            "componentType" : 5126,
            "count" : 64,
            "max" : [
                63.5,
                127.10000610351562,
                9.579312324523926
            ],
            "min" : [
                -63.5,
                7.100000381469727,
                -1.720687985420227
            ],
            "type" : "VEC3"
        },
        {
            "bufferView" : 1,
            "componentType" : 5126,
            "count" : 64,
            "type" : "VEC3"
        },
        {
            "bufferView" : 2,
            "componentType" : 5123,
            "count" : 216,
            "type" : "SCALAR"
        },
        {
            "bufferView" : 3,
            "componentType" : 5126,
            "count" : 4,
            "max" : [
                -28.5,
                52.10000228881836,
                9.345978736877441
            ],
            "min" : [
                -38.5,
                7.100000381469727,
                9.31264591217041
            ],
            "type" : "VEC3"
        },
        {
            "bufferView" : 4,
            "componentType" : 5126,
            "count" : 4,
            "type" : "VEC3"
        },
        {
            "bufferView" : 5,
            "componentType" : 5123,
            "count" : 12,
            "type" : "SCALAR"
        },
        {
            "bufferView" : 6,
            "componentType" : 5126,
            "count" : 2288,
            "max" : [
                52.0999755859375,
                109.19999694824219,
                9.204312324523926
            ],
            "min" : [
                -49.10003662109375,
                7.999992370605469,
                -1.3456883430480957
            ],
            "type" : "VEC3"
        },
        {
            "bufferView" : 7,
            "componentType" : 5126,
            "count" : 2288,
            "type" : "VEC3"
        },
        {
            "bufferView" : 8,
            "componentType" : 5123,
            "count" : 13332,
            "type" : "SCALAR"
        },
        {
            "bufferView" : 9,
            "componentType" : 5126,
            "count" : 72,
            "max" : [
                63.51319122314453,
                127.10000610351562,
                7.179312229156494
            ],
            "min" : [
                -61.85200119018555,
                7.100000381469727,
                0.6793117523193359
            ],
            "type" : "VEC3"
        },
        {
            "bufferView" : 10,
            "componentType" : 5126,
            "count" : 72,
            "type" : "VEC3"
        },
        {
            "bufferView" : 11,
            "componentType" : 5126,
            "count" : 72,
            "type" : "VEC2"
        },
        {
            "bufferView" : 12,
            "componentType" : 5123,
            "count" : 108,
            "type" : "SCALAR"
        },
        {
            "bufferView" : 14,
            "componentType" : 5126,
            "count" : 308,
            "max" : [
                63.50000762939453,
                127.10000610351562,
                7.665351390838623
            ],
            "min" : [
                -64.99256134033203,
                6.9767351150512695,
                0.19327200949192047
            ],
            "type" : "VEC3"
        },
        {
            "bufferView" : 15,
            "componentType" : 5126,
            "count" : 308,
            "type" : "VEC3"
        },
        {
            "bufferView" : 16,
            "componentType" : 5126,
            "count" : 308,
            "type" : "VEC2"
        },
        {
            "bufferView" : 17,
            "componentType" : 5123,
            "count" : 612,
            "type" : "SCALAR"
        },
        {
            "bufferView" : 19,
            "componentType" : 5126,
            "count" : 42,
            "max" : [
                63.5,
                127.10000610351562,
                8.9793119430542
            ],
            "min" : [
                -63.5,
                7.100000381469727,
                -1.1206879615783691
            ],
            "type" : "VEC3"
        },
        {
            "bufferView" : 20,
            "componentType" : 5126,
            "count" : 42,
            "type" : "VEC3"
        },
        {
            "bufferView" : 21,
            "componentType" : 5123,
            "count" : 60,
            "type" : "SCALAR"
        }
    ],
    "bufferViews" : [
        {
            "buffer" : 0,
            "byteLength" : 768,
            "byteOffset" : 0
        },
        {
            "buffer" : 0,
            "byteLength" : 768,
            "byteOffset" : 768
        },
        {
            "buffer" : 0,
            "byteLength" : 432,
            "byteOffset" : 1536
        },
        {
            "buffer" : 0,
            "byteLength" : 48,
            "byteOffset" : 1968
        },
        {
            "buffer" : 0,
            "byteLength" : 48,
            "byteOffset" : 2016
        },
        {
            "buffer" : 0,
            "byteLength" : 24,
            "byteOffset" : 2064
        },
        {
            "buffer" : 0,
            "byteLength" : 27456,
            "byteOffset" : 2088
        },
        {
            "buffer" : 0,
            "byteLength" : 27456,
            "byteOffset" : 29544
        },
        {
            "buffer" : 0,
            "byteLength" : 26664,
            "byteOffset" : 57000
        },
        {
            "buffer" : 0,
            "byteLength" : 864,
            "byteOffset" : 83664
        },
        {
            "buffer" : 0,
            "byteLength" : 864,
            "byteOffset" : 84528
        },
        {
            "buffer" : 0,
            "byteLength" : 576,
            "byteOffset" : 85392
        },
        {
            "buffer" : 0,
            "byteLength" : 216,
            "byteOffset" : 85968
        },
        {
            "buffer" : 0,
            "byteLength" : 306686,
            "byteOffset" : 86184
        },
        {
            "buffer" : 0,
            "byteLength" : 3696,
            "byteOffset" : 392872
        },
        {
            "buffer" : 0,
            "byteLength" : 3696,
            "byteOffset" : 396568
        },
        {
            "buffer" : 0,
            "byteLength" : 2464,
            "byteOffset" : 400264
        },
        {
            "buffer" : 0,
            "byteLength" : 1224,
            "byteOffset" : 402728
        },
        {
            "buffer" : 0,
            "byteLength" : 81024,
            "byteOffset" : 403952
        },
        {
            "buffer" : 0,
            "byteLength" : 504,
            "byteOffset" : 484976
        },
        {
            "buffer" : 0,
            "byteLength" : 504,
            "byteOffset" : 485480
        },
        {
            "buffer" : 0,
            "byteLength" : 120,
            "byteOffset" : 485984
        }
    ],
    "samplers" : [
        {
            "magFilter" : 9729,
            "minFilter" : 9986
        }
    ],
    "buffers" : [
        {
            "byteLength" : 486104,
            "uri" : "data:application/octet-stream;base64,"
        }
    ]
}
