{
    "asset" : {
        "generator" : "Khronos glTF Blender I/O v1.4.40",
        "version" : "2.0"
    },
    "scene" : 0,
    "scenes" : [
        {
            "name" : "Scene",
            "nodes" : [
                0,
                1,
                2,
                3,
                4,
                5,
                6,
                7,
                8,
                9
            ]
        }
    ],
    "nodes" : [
        {
            "name" : "Light.001",
            "rotation" : [
                0.16907575726509094,
                0.7558803558349609,
                -0.27217137813568115,
                0.570947527885437
            ],
            "translation" : [
                4.076245307922363,
                5.903861999511719,
                -1.0054539442062378
            ]
        },
        {
            "name" : "Camera.001",
            "rotation" : [
                0.483536034822464,
                0.33687159419059753,
                -0.20870360732078552,
                0.7804827094078064
            ],
            "translation" : [
                7.358891487121582,
                4.958309173583984,
                6.925790786743164
            ]
        },
        {
            "mesh" : 0,
            "name" : "\u0411\u0435\u0442\u043e\u043d - \u043e\u0441\u043d\u043e\u0432\u0430\u043d\u0438\u0435",
            "scale" : [
                0.009999999776482582,
                0.009999999776482582,
                0.009999999776482582
            ]
        },
        {
            "mesh" : 1,
            "name" : "\u041c\u0435\u0442\u0430\u043b\u043b - \u0416\u0435\u043b\u0435\u0437\u043e",
            "scale" : [
                0.009999999776482582,
                0.009999999776482582,
                0.009999999776482582
            ]
        },
        {
            "mesh" : 2,
            "name" : "\u041a\u0440\u0430\u0441\u043a\u0430 - \u0417\u043e\u043b\u043e\u0442\u0438\u0441\u0442\u043e-\u041e\u0445\u0440\u0438\u0441\u0442\u0430\u044f",
            "scale" : [
                0.009999999776482582,
                0.009999999776482582,
                0.009999999776482582
            ]
        },
        {
            "mesh" : 3,
            "name" : "\u0414\u043e\u0440\u043e\u0436\u043d\u043e\u0435 \u041f\u043e\u043a\u0440\u044b\u0442\u0438\u0435 - \u0410\u0441\u0444\u0430\u043b\u044c\u0442 \u0421\u0432_f8b385f",
            "scale" : [
                0.009999999776482582,
                0.009999999776482582,
                0.009999999776482582
            ]
        },
        {
            "mesh" : 4,
            "name" : "\u0414\u043e\u0440\u043e\u0436\u043d\u043e\u0435 \u041f\u043e\u043a\u0440\u044b\u0442\u0438\u0435 - \u0410\u0441\u0444\u0430\u043b\u044c\u0442 \u0421\u0432_e5724c8",
            "scale" : [
                0.009999999776482582,
                0.009999999776482582,
                0.009999999776482582
            ]
        },
        {
            "mesh" : 5,
            "name" : "\u0413\u0440\u0443\u043d\u0442 - \u041a\u043e\u0440\u0438\u0447\u043d\u0435\u0432\u044b\u0439",
            "scale" : [
                0.009999999776482582,
                0.009999999776482582,
                0.009999999776482582
            ]
        },
        {
            "name" : "Light",
            "rotation" : [
                0.16907575726509094,
                0.7558803558349609,
                -0.27217137813568115,
                0.570947527885437
            ],
            "translation" : [
                4.076245307922363,
                5.903861999511719,
                -1.0054539442062378
            ]
        },
        {
            "name" : "Camera",
            "rotation" : [
                0.483536034822464,
                0.33687159419059753,
                -0.20870360732078552,
                0.7804827094078064
            ],
            "translation" : [
                7.358891487121582,
                4.958309173583984,
                6.925790786743164
            ]
        }
    ],
    "materials" : [
        {
            "doubleSided" : true,
            "name" : "\u0411\u0435\u0442\u043e\u043d - \u043e\u0441\u043d\u043e\u0432\u0430\u043d\u0438\u0435",
            "pbrMetallicRoughness" : {
                "baseColorTexture" : {
                    "index" : 0,
                    "texCoord" : 0
                },
                "roughnessFactor" : 0.9122503399848938
            }
        },
        {
            "doubleSided" : true,
            "name" : "\u041c\u0435\u0442\u0430\u043b\u043b - \u0416\u0435\u043b\u0435\u0437\u043e",
            "pbrMetallicRoughness" : {
                "baseColorTexture" : {
                    "index" : 1,
                    "texCoord" : 0
                },
                "roughnessFactor" : 0.32100000977516174
            }
        },
        {
            "doubleSided" : true,
            "name" : "\u041a\u0440\u0430\u0441\u043a\u0430 - \u0417\u043e\u043b\u043e\u0442\u0438\u0441\u0442\u043e-\u041e\u0445\u0440\u0438\u0441\u0442\u0430\u044f",
            "pbrMetallicRoughness" : {
                "baseColorFactor" : [
                    0.9568629860877991,
                    0.3370000123977661,
                    0.125,
                    1
                ],
                "roughnessFactor" : 0.9700000286102295
            }
        },
        {
            "doubleSided" : true,
            "emissiveFactor" : [
                0.05404386669397354,
                0.05404386669397354,
                0.05404386669397354
            ],
            "name" : "\u0414\u043e\u0440\u043e\u0436\u043d\u043e\u0435 \u041f\u043e\u043a\u0440\u044b\u0442\u0438\u0435 - \u0410\u0441\u0444\u0430\u043b\u044c\u0442 \u0421\u0432_f8b385f",
            "pbrMetallicRoughness" : {
                "baseColorTexture" : {
                    "index" : 2,
                    "texCoord" : 0
                }
            }
        },
        {
            "doubleSided" : true,
            "name" : "\u0414\u043e\u0440\u043e\u0436\u043d\u043e\u0435 \u041f\u043e\u043a\u0440\u044b\u0442\u0438\u0435 - \u0410\u0441\u0444\u0430\u043b\u044c\u0442 \u0421\u0432_e5724c8",
            "pbrMetallicRoughness" : {
                "baseColorTexture" : {
                    "index" : 3,
                    "texCoord" : 0
                }
            }
        },
        {
            "doubleSided" : true,
            "emissiveFactor" : [
                0.020999999716877937,
                0.01600000075995922,
                0.0020000000949949026
            ],
            "name" : "\u0413\u0440\u0443\u043d\u0442 - \u041a\u043e\u0440\u0438\u0447\u043d\u0435\u0432\u044b\u0439",
            "pbrMetallicRoughness" : {
                "baseColorTexture" : {
                    "index" : 4,
                    "texCoord" : 0
                }
            }
        }
    ],
    "meshes" : [
        {
            "name" : "\u0411\u0435\u0442\u043e\u043d - \u043e\u0441\u043d\u043e\u0432\u0430\u043d\u0438\u0435",
            "primitives" : [
                {
                    "attributes" : {
                        "POSITION" : 0,
                        "NORMAL" : 1,
                        "TEXCOORD_0" : 2
                    },
                    "indices" : 3,
                    "material" : 0
                }
            ]
        },
        {
            "name" : "\u041c\u0435\u0442\u0430\u043b\u043b - \u0416\u0435\u043b\u0435\u0437\u043e",
            "primitives" : [
                {
                    "attributes" : {
                        "POSITION" : 4,
                        "NORMAL" : 5,
                        "TEXCOORD_0" : 6
                    },
                    "indices" : 7,
                    "material" : 1
                }
            ]
        },
        {
            "name" : "\u041a\u0440\u0430\u0441\u043a\u0430 - \u0417\u043e\u043b\u043e\u0442\u0438\u0441\u0442\u043e-\u041e\u0445\u0440\u0438\u0441\u0442\u0430\u044f",
            "primitives" : [
                {
                    "attributes" : {
                        "POSITION" : 8,
                        "NORMAL" : 9
                    },
                    "indices" : 10,
                    "material" : 2
                }
            ]
        },
        {
            "name" : "\u0414\u043e\u0440\u043e\u0436\u043d\u043e\u0435 \u041f\u043e\u043a\u0440\u044b\u0442\u0438\u0435 - \u0410\u0441\u0444\u0430\u043b\u044c\u0442 \u0421\u0432_f8b385f",
            "primitives" : [
                {
                    "attributes" : {
                        "POSITION" : 11,
                        "NORMAL" : 12,
                        "TEXCOORD_0" : 13
                    },
                    "indices" : 3,
                    "material" : 3
                }
            ]
        },
        {
            "name" : "\u0414\u043e\u0440\u043e\u0436\u043d\u043e\u0435 \u041f\u043e\u043a\u0440\u044b\u0442\u0438\u0435 - \u0410\u0441\u0444\u0430\u043b\u044c\u0442 \u0421\u0432_e5724c8",
            "primitives" : [
                {
                    "attributes" : {
                        "POSITION" : 14,
                        "NORMAL" : 15,
                        "TEXCOORD_0" : 16
                    },
                    "indices" : 3,
                    "material" : 4
                }
            ]
        },
        {
            "name" : "\u0413\u0440\u0443\u043d\u0442 - \u041a\u043e\u0440\u0438\u0447\u043d\u0435\u0432\u044b\u0439",
            "primitives" : [
                {
                    "attributes" : {
                        "POSITION" : 17,
                        "NORMAL" : 18,
                        "TEXCOORD_0" : 19
                    },
                    "indices" : 20,
                    "material" : 5
                }
            ]
        }
    ],
    "textures" : [
        {
            "sampler" : 0,
            "source" : 0
        },
        {
            "sampler" : 0,
            "source" : 1
        },
        {
            "sampler" : 0,
            "source" : 2
        },
        {
            "sampler" : 0,
            "source" : 3
        },
        {
            "sampler" : 0,
            "source" : 4
        }
    ],
    "images" : [
        {
            "bufferView" : 4,
            "mimeType" : "image/png",
            "name" : "89fa60e15a1f8b72f82868c5f5267806"
        },
        {
            "bufferView" : 9,
            "mimeType" : "image/png",
            "name" : "49ed40a681fce5327905e99125b7f431"
        },
        {
            "bufferView" : 16,
            "mimeType" : "image/png",
            "name" : "f8299866d6fe8b9bf3dad743afe4a24a"
        },
        {
            "bufferView" : 20,
            "mimeType" : "image/png",
            "name" : "5dc39e577201add903e3f5b6c2f9313a"
        },
        {
            "bufferView" : 25,
            "mimeType" : "image/png",
            "name" : "72dd995037eff443c0ef0be1c41523de"
        }
    ],
    "accessors" : [
        {
            "bufferView" : 0,
            "componentType" : 5126,
            "count" : 24,
            "max" : [
                15.000000953674316,
                185,
                90.5
            ],
            "min" : [
                -15.000000953674316,
                0,
                -90.5
            ],
            "type" : "VEC3"
        },
        {
            "bufferView" : 1,
            "componentType" : 5126,
            "count" : 24,
            "type" : "VEC3"
        },
        {
            "bufferView" : 2,
            "componentType" : 5126,
            "count" : 24,
            "type" : "VEC2"
        },
        {
            "bufferView" : 3,
            "componentType" : 5123,
            "count" : 36,
            "type" : "SCALAR"
        },
        {
            "bufferView" : 5,
            "componentType" : 5126,
            "count" : 630,
            "max" : [
                8.80000114440918,
                200,
                77.39761352539062
            ],
            "min" : [
                -8.800000190734863,
                -7.960203880059101e-17,
                -75.19378662109375
            ],
            "type" : "VEC3"
        },
        {
            "bufferView" : 6,
            "componentType" : 5126,
            "count" : 630,
            "type" : "VEC3"
        },
        {
            "bufferView" : 7,
            "componentType" : 5126,
            "count" : 630,
            "type" : "VEC2"
        },
        {
            "bufferView" : 8,
            "componentType" : 5123,
            "count" : 1512,
            "type" : "SCALAR"
        },
        {
            "bufferView" : 10,
            "componentType" : 5126,
            "count" : 48,
            "max" : [
                23.700000762939453,
                116.99999237060547,
                41.5
            ],
            "min" : [
                16.200000762939453,
                0,
                -90.5
            ],
            "type" : "VEC3"
        },
        {
            "bufferView" : 11,
            "componentType" : 5126,
            "count" : 48,
            "type" : "VEC3"
        },
        {
            "bufferView" : 12,
            "componentType" : 5123,
            "count" : 216,
            "type" : "SCALAR"
        },
        {
            "bufferView" : 13,
            "componentType" : 5126,
            "count" : 24,
            "max" : [
                15.5,
                155,
                64.5
            ],
            "min" : [
                15.000000953674316,
                0,
                -90.5
            ],
            "type" : "VEC3"
        },
        {
            "bufferView" : 14,
            "componentType" : 5126,
            "count" : 24,
            "type" : "VEC3"
        },
        {
            "bufferView" : 15,
            "componentType" : 5126,
            "count" : 24,
            "type" : "VEC2"
        },
        {
            "bufferView" : 17,
            "componentType" : 5126,
            "count" : 24,
            "max" : [
                16.100000381469727,
                135,
                54.5
            ],
            "min" : [
                15.600000381469727,
                0,
                -90.5
            ],
            "type" : "VEC3"
        },
        {
            "bufferView" : 18,
            "componentType" : 5126,
            "count" : 24,
            "type" : "VEC3"
        },
        {
            "bufferView" : 19,
            "componentType" : 5126,
            "count" : 24,
            "type" : "VEC2"
        },
        {
            "bufferView" : 21,
            "componentType" : 5126,
            "count" : 74,
            "max" : [
                82.67292785644531,
                58.155296325683594,
                29.12071990966797
            ],
            "min" : [
                23.700000762939453,
                -1.609729290008545,
                -90.5
            ],
            "type" : "VEC3"
        },
        {
            "bufferView" : 22,
            "componentType" : 5126,
            "count" : 74,
            "type" : "VEC3"
        },
        {
            "bufferView" : 23,
            "componentType" : 5126,
            "count" : 74,
            "type" : "VEC2"
        },
        {
            "bufferView" : 24,
            "componentType" : 5123,
            "count" : 168,
            "type" : "SCALAR"
        }
    ],
    "bufferViews" : [
        {
            "buffer" : 0,
            "byteLength" : 288,
            "byteOffset" : 0
        },
        {
            "buffer" : 0,
            "byteLength" : 288,
            "byteOffset" : 288
        },
        {
            "buffer" : 0,
            "byteLength" : 192,
            "byteOffset" : 576
        },
        {
            "buffer" : 0,
            "byteLength" : 72,
            "byteOffset" : 768
        },
        {
            "buffer" : 0,
            "byteLength" : 83526,
            "byteOffset" : 840
        },
        {
            "buffer" : 0,
            "byteLength" : 7560,
            "byteOffset" : 84368
        },
        {
            "buffer" : 0,
            "byteLength" : 7560,
            "byteOffset" : 91928
        },
        {
            "buffer" : 0,
            "byteLength" : 5040,
            "byteOffset" : 99488
        },
        {
            "buffer" : 0,
            "byteLength" : 3024,
            "byteOffset" : 104528
        },
        {
            "buffer" : 0,
            "byteLength" : 16520,
            "byteOffset" : 107552
        },
        {
            "buffer" : 0,
            "byteLength" : 576,
            "byteOffset" : 124072
        },
        {
            "buffer" : 0,
            "byteLength" : 576,
            "byteOffset" : 124648
        },
        {
            "buffer" : 0,
            "byteLength" : 432,
            "byteOffset" : 125224
        },
        {
            "buffer" : 0,
            "byteLength" : 288,
            "byteOffset" : 125656
        },
        {
            "buffer" : 0,
            "byteLength" : 288,
            "byteOffset" : 125944
        },
        {
            "buffer" : 0,
            "byteLength" : 192,
            "byteOffset" : 126232
        },
        {
            "buffer" : 0,
            "byteLength" : 78632,
            "byteOffset" : 126424
        },
        {
            "buffer" : 0,
            "byteLength" : 288,
            "byteOffset" : 205056
        },
        {
            "buffer" : 0,
            "byteLength" : 288,
            "byteOffset" : 205344
        },
        {
            "buffer" : 0,
            "byteLength" : 192,
            "byteOffset" : 205632
        },
        {
            "buffer" : 0,
            "byteLength" : 78632,
            "byteOffset" : 205824
        },
        {
            "buffer" : 0,
            "byteLength" : 888,
            "byteOffset" : 284456
        },
        {
            "buffer" : 0,
            "byteLength" : 888,
            "byteOffset" : 285344
        },
        {
            "buffer" : 0,
            "byteLength" : 592,
            "byteOffset" : 286232
        },
        {
            "buffer" : 0,
            "byteLength" : 336,
            "byteOffset" : 286824
        },
        {
            "buffer" : 0,
            "byteLength" : 89877,
            "byteOffset" : 287160
        }
    ],
    "samplers" : [
        {
            "magFilter" : 9729,
            "minFilter" : 9986
        }
    ],
    "buffers" : [
        {
            "byteLength" : 377040,
            "uri" : "data:application/octet-stream;base64,"
        }
    ]
}
